<svg width="480" height="320" viewBox="0 0 480 320" fill="none" xmlns="http://www.w3.org/2000/svg">
  <rect width="480" height="320" fill="#F5F7FB"/>
  <path d="M44 78h114v52H44zM188 78h114v52H188zM332 78h104v52H332zM68 184h128v52H68zM226 184h186v52H226z" fill="#FFFFFF" stroke="#D9E0EA"/>
  <path d="M82 104h58M210 104h70M354 104h50M94 210h76M248 210h132" stroke="#2C9F7A" stroke-width="8" stroke-linecap="round"/>
  <path d="M158 130c38 42 78 42 120 0M302 130c20 28 44 44 80 54M196 184c18-26 38-42 72-54" stroke="#E45D50" stroke-width="4" stroke-linecap="round" stroke-dasharray="10 12"/>
  <circle cx="158" cy="130" r="8" fill="#D19A2A"/>
  <circle cx="278" cy="130" r="8" fill="#D19A2A"/>
  <circle cx="382" cy="184" r="8" fill="#D19A2A"/>
</svg>
